<svg width="1000" height="181" viewBox="0 0 1000 181" xmlns="http://www.w3.org/2000/svg"><g fill="#FFF" fill-rule="evenodd"><path d="M0 34.325h14.2V51.57c6.9-13.794 22.115-20.287 34.49-20.287 11.36 0 22.113 3.652 29.822 12.376 2.84 2.838 6.492 10.142 7.1 11.36 1.624-3.043 3.855-7.305 7.91-11.564 7.102-7.507 17.855-12.173 30.027-12.173 11.157 0 21.91 3.246 29.416 10.956 9.535 9.533 12.376 21.3 12.376 40.572v60.658h-15.015V83.42c0-11.563-1.825-21.91-8.115-29.01-4.462-5.68-11.36-9.13-21.705-9.13-9.535 0-18.867 3.856-23.94 11.363-5.478 7.708-6.492 13.794-6.492 26.17v60.657H75.06V82.812c.407-12.172-1.42-19.272-5.68-25.968-5.07-7.1-12.78-11.36-23.938-11.563-10.143-.404-18.664 4.667-23.127 11.16-4.666 6.287-7.303 14.605-7.303 26.17v60.86H0V34.325M188.876 89.1c0 24.75 18.867 43.415 43.008 43.415 24.345 0 43.01-18.664 43.01-43.617 0-24.954-18.665-43.617-43.01-43.617-24.14 0-43.008 18.664-43.008 43.618v.203zm-14.81-.406c0-30.43 22.722-57.41 57.818-57.41 35.3 0 58.02 26.98 58.02 57.614 0 30.633-22.72 57.413-58.02 57.413-35.096 0-57.818-26.78-57.818-57.412v-.204zm165.747 54.776H324.19L281.185 34.325h15.823l35.096 90.684 34.895-90.685h15.824l-43.01 109.145m54.979-121.935h15.01V.64h-15.01m0 142.83h15.01V34.325h-15.01M521.785 81.19c-1.014-19.07-19.474-37.734-41.993-37.127-23.533 0-40.98 17.246-42.4 37.126h84.393zM437.19 93.16c.81 27.385 24.142 40.572 42.602 40.37 16.84 0 30.43-8.32 37.53-22.52h15.622c-5.072 11.768-12.78 20.694-22.112 26.577-9.13 5.883-19.883 8.925-31.04 8.925-37.937 0-57.614-30.226-57.614-57.41 0-32.055 24.75-57.82 57.41-57.82 15.42 0 29.62 5.478 39.966 15.42 12.58 12.172 18.664 29.01 17.042 46.457H437.19zm200.032-5.884c0-13.39-9.74-28.808-28.2-28.808s-28.2 15.418-28.2 28.808c0 14.2 10.55 28.603 28.2 28.603s28.2-14.404 28.2-28.604zm-88.655-56.4h31.648v12.376h.607c6.696-8.52 17.853-16.23 35.098-16.23 39.965 0 54.976 35.098 54.976 61.268 0 32.458-22.72 59.035-54.775 59.035-20.284 0-29.82-9.738-33.878-13.998V181h-33.675V30.877z"/><path d="M719.588 115.88c21.098 0 28.198-17.852 28.198-28.807 0-13.594-9.332-28.605-28.4-28.605-19.275 0-27.794 16.23-27.794 29.01 0 10.55 7.71 28.4 27.996 28.4zm61.874 27.59h-33.676v-12.173h-.406c-5.68 10.956-19.678 16.028-32.864 16.028-35.706 0-56.6-27.997-56.6-60.252 0-36.923 26.575-60.05 56.6-60.05 18.462 0 28.807 8.926 32.864 15.823h.406v-11.97h33.676V143.47z"/><path d="M833.4 62.526c-.204-2.435-.608-8.52-10.55-8.52-7.1 0-9.535 4.462-9.535 7.504 0 6.086 8.32 9.535 17.246 12.173 19.07 5.275 39.356 10.955 39.356 35.3 0 23.735-20.895 38.342-45.848 38.342-17.042 0-42.806-7.71-45.848-37.33h33.473c1.42 10.35 11.36 10.35 12.782 10.35 5.68 0 11.765-3.25 11.765-8.725 0-8.725-8.317-9.74-29.822-18.057-14.606-4.665-26.778-14.2-26.778-29.416 0-22.315 20.286-37.124 43.617-37.124 14.808 0 40.37 5.884 43.21 35.503H833.4"/><path d="M921.853 62.526c-.204-2.435-.608-8.52-10.55-8.52-7.1 0-9.534 4.462-9.534 7.504 0 6.086 8.316 9.535 17.244 12.173 19.068 5.275 39.355 10.955 39.355 35.3 0 23.735-20.896 38.342-45.85 38.342-17.04 0-42.805-7.71-45.848-37.33h33.474c1.42 10.35 11.36 10.35 12.78 10.35 5.68 0 11.767-3.25 11.767-8.725 0-8.725-8.317-9.74-29.822-18.057-14.606-4.665-26.777-14.2-26.777-29.416 0-22.315 20.285-37.124 43.617-37.124 14.81 0 40.37 5.884 43.21 35.503h-33.067m48.265 59.447h-4.605v-3.184h12.42v3.183h-4.642v18.08h-3.173v-18.08"/><path d="M977.863 118.79h4.783l6.285 15.383 6.333-15.384H1000v21.262h-3.364v-16.314l-6.42 16.314h-2.57l-6.463-16.314v16.314h-3.32V118.79"/></g></svg>